<?xml version="1.0" encoding="UTF-8"?>
<svg version="1.1" viewBox="0 0 2048 2048" width="512" height="512" xmlns="http://www.w3.org/2000/svg">
<path transform="translate(17,336)" d="m0 0h2014l1 1v1374l-1 1h-2015v-1375z" fill="#FCFCFB"/>
<path transform="translate(2031,1136)" d="m0 0h1v575l-1 1h-2015v-457h2015z" fill="#348905"/>
<path transform="translate(17,336)" d="m0 0h2014l1 1v457l-1028-1h-946l-41-1-1 3v-458z" fill="#EC7500"/>
<path transform="translate(1011,819)" d="m0 0h25l24 3 22 5 22 8 22 11 18 12 14 11 15 14 11 13 12 17 11 19 9 20 6 19 5 24 2 22v13l-2 22-5 25-8 24-11 23-12 19-11 13-14 16-8 7-15 12-13 8-16 9-21 9-24 7-24 4h-42l-24-4-18-5-21-8-21-11-15-10-14-11-14-13-7-8-12-15-10-16-12-23-7-20-5-19-3-19-1-11v-17l2-23 4-21 6-19 8-19 11-21 10-14 8-10 9-10 12-12 17-13 14-9 21-11 19-7 22-6 17-3z" fill="#062E87"/>
<path transform="translate(1022,834)" d="m0 0h2l1 5 6 81v27l-5 41v10l2-4 5-31 7-33 14-43 11-35 4-9 3-2-1 10-16 84-6 19-16 42-1 4h4l1-6 15-33 11-23 12-19 28-44 9-14 2-3 4 1h-2l-3 10-8 16-14 29-12 26-7 13-12 17-11 16-8 11-3 5h4l8-10 12-14 9-10 9-11 8-8 11-9 12-11 11-9 14-13 8-7 10-9h3l-1 4-14 15-9 11-14 15-9 11-10 11-7 8-11 9-10 8-11 9-10 8-7 5 3 2 4-4 16-11 15-11 9-6 13-8 23-12 33-17 20-11 6-2-3 5-17 12-19 13-20 14-16 11-16 9-30 14-11 5-6 1v3l13-4 29-11 22-8 31-7 30-7 28-7 4 1-2 3-36 13-26 10-28 10-33 7-26 4h-5v4l31-2 23-2h22l62 4h27v5h-11l-33 3-44 3h-23l-48-6-6-1v4l12 1 51 9 24 7 50 16 16 5 6 2-1 4-5-2-89-16-30-10-29-11-5-1-2 3 9 2 22 10 28 13 16 10 22 14 23 14 13 8 9 7-1 2-26-12-14-7-29-13-19-9-27-18-18-13-7-5-3-1 1 4 11 9 13 11 8 7 10 9 8 7 12 13 7 8 12 13 12 14 12 13 3 3v2l4 2 2 3-1 3-5-5-13-11-10-9-11-9-14-12-10-9-11-9-7-7-9-11-14-17-9-11-3-4h-3l2 4 10 13 12 18 11 16 14 27 8 15 8 17 12 22 4 9 2 2-4 1-7-11-19-28-14-20-14-21-9-17-13-28-6-14-4-2 4 8 14 37 6 17 11 47 6 26 5 20-1 3-5-8-13-37-8-20-10-27-6-29-5-28v-7h-4l5 60v13l-4 61-1 25-1 5 2 1-4-1-3-24-5-64v-17l6-53 1-6h-3l-5 29-7 36-12 38-10 31-8 25h-1v-10l10-54 5-26 6-21 16-43 2-6-3-1-3 9-13 28-13 27-15 23-14 22-12 19-10 16-3-2h2l1-6 14-29 13-28 14-29 7-10 10-15 12-17 6-8-1-3-5 5-12 14-9 10-12 14-14 14-11 9-15 14-11 9-7 7-8 7-10 9-3 1 2-5 9-11 14-15 9-11 12-14 11-12 7-8 14-12 10-8 11-9 10-7 4-3v-2l-5 2-17 12-11 8-21 14-10 6-38 19-19 10-18 10h-3l2-4 32-22 23-16 14-10 15-9 33-16 19-8 1-2-13 4-28 11-22 8-38 9-32 7-20 5-5 1-1 3-1-6 9-3 33-12 40-15 16-5 39-8 14-2h7l-1-3h-19l-39 3h-14l-92-6v-3l85-6h23l49 5 7 1-3-3-25-4-30-5-15-4-81-26-5-1 3-2 11 1 83 15 27 9 37 14v-4l-9-3-25-11-26-12-38-24-14-9-24-15-7-4 1-3 16 7 30 14 24 11 23 11 24 16 17 12 9 6h2l-1-4-12-9-13-11-8-7-13-11-10-10-7-8-12-14-12-13-22-24-4-7 5 2 15 14 14 11 12 11 11 9 14 12 14 14 11 14 9 11 11 14v2l4-3-6-7-8-11-12-17-9-13-9-16-27-54-9-17-2-6 4 2 10 15 23 34 12 17 10 16 17 35 8 19v2l8-2v-26l-3-31v-21l4-60 1-25z" fill="#093380"/>
<path transform="translate(1e3 1039)" d="m0 0 3 1-2 4-14 10-13 11-14 11-12 11-7 8-9 10-8 10-12 14-12 13-9 11-1 3 9-7 9-9 8-7 10-9 8-7 10-9 11-9 15-15 9-11 7-7 18-22 3-1 1 4-14 19-22 33-9 19-8 16-14 30-10 22-1 3-5-1-10-7-1-4v-6l-5-5-5-1-4 3-6-3v-2l-4-2-4-5-6-5-3-4 1-4 2-4-3-6v-2l-8-1-3 1-4-4-2-6 16-8 19-10 50-26 24-16 15-11z" fill="#FDFDFC"/>
<path transform="translate(1010,834)" d="m0 0h10l1 1v25l-4 60v21l3 31v26l-4 2h-5l-12-27-16-33-15-22-12-17-26-39v-4l8-4 5 2 3 2 7-1 4-4 1-7 6-3h5l12 48 10 44 6 18 11 27 6 17 2 1-2-18-8-40-5-16-16-43-9-25-4-10-2-4 7-3 10-1 2 4 4 2h7l4-4 2-5z" fill="#FDFDFC"/>
<path transform="translate(834,1025)" d="m0 0h14l78 5h14l39-3h19l1 4-25 4-35 7-16 5-43 16-35 13-3 1-3-8-2-10 6-5v-9l-3-3-5-3z" fill="#FDFDFC"/>
<path transform="translate(1204,970)" d="m0 0 3 1 2 7v10l-4 2-1 2v7l4 4 5 3 1 5v9l-1 1h-26l-62-4h-22l-33 3h-21v-4l41-7 23-5 20-7 32-12 35-13z" fill="#FDFDFC"/>
<path transform="translate(1027,1049)" d="m0 0h4l8 45 4 19 11 30 9 23 12 33 3 5-1 3-12 3h-6l-4-5h-10l-3 3-3 5-3 1h-8l-2-1 2-49 3-42v-13l-4-46z" fill="#FDFDFC"/>
<path transform="translate(1116,859)" d="m0 0 5 1 9 6-1 7 5 6h7l6-1 10 10v3l-5 3-12 11-11 10-11 9-13 12-11 9-14 13-9 11-12 13-9 11-8 10-4-1 2-5 8-11 11-16 14-20 16-33 12-26 8-17 5-10z" fill="#FDFDFC"/>
<path transform="translate(887,891)" d="m0 0h3l7 9 12 13 14 15 9 10 9 11 15 16 9 8 8 7 13 11 17 13 1 4-3 1-19-13-10-7-23-15-31-15-20-9-28-13-12-5 2-6 6-8h9l4-3 1-9-2-2 1-4z" fill="#FDFDFC"/>
<path transform="translate(1045,1037)" d="m0 0 4 1 17 12 13 9 12 8 13 8 30 14 27 12 28 14 1 2-6 10-4 3-1-1-7 1-4 4v6l2 6-7 8-3 2-4-5-14-14-7-8-12-14-15-16-7-8-9-10-14-12-12-11-10-8-11-9z" fill="#FDFDFC"/>
<path transform="translate(1040,1043)" d="m0 0 4 1 8 10 11 13 9 11 11 13 11 10 11 9 10 9 11 9 11 10 22 18-2 4-8 7h-2l-1-2h-8l-5 4-1 4 1 6-5 4-5 3-3-1-8-16-8-15-9-19-10-19-12-23-13-18-10-15-9-12-2-4z" fill="#FDFDFC"/>
<path transform="translate(1049,1031)" d="m0 0 11 3 37 14 16 5 56 10 37 7 2 4-3 8-10 4-2 4 1 7 3 4-2 6-4 8h-2l-5-5-9-6-18-11-21-13-19-12-13-8-28-13-23-10-6-2z" fill="#FDFDFC"/>
<path transform="translate(1013,1047)" d="m0 0 4 1-6 16-15 42-6 27-12 65-1 10-7-1-10-4-2-9-5-3h-6l-4 4-9-3-1-3 12-19 14-22 16-25 10-16 16-33z" fill="#FDFDFC"/>
<path transform="translate(925,861)" d="m0 0h3l8 17 10 19 24 48 7 11 12 17 8 11 11 15 2 3-5 2-8-11-11-13-11-14-9-10-9-9-11-9-15-13-10-9-14-11-13-12-4-4 8-8 4-1 3 2 7-1 4-3v-11z" fill="#FDFDFC"/>
<path transform="translate(1020,1049)" d="m0 0h3l-1 13-5 46v17l5 64 3 24-1 1h-13l-4-4-4-5h-9l-5 5h-8l-3-2 2-10 6-18 14-43 8-27 7-38 4-21z" fill="#FDFDFC"/>
<path transform="translate(856,934)" d="m0 0 5 1 19 12 21 13 15 10 21 13 16 8 28 13 19 8v4l-11-3-20-8-33-11-88-16-7-1-1-4 4-10 9-3 3-4v-6l-4-5 1-5z" fill="#FDFDFC"/>
<path transform="translate(1072,841)" d="m0 0 7 1 7 3 3 8 3 2h6l4-3 6 1 7 4-4 7-14 22-12 19-9 14-13 21-13 27-13 30-1 3h-4l1-6 13-35 5-14 5-19 12-66z" fill="#FDFDFC"/>
<path transform="translate(1024,834)" d="m0 0h12l8 8 9 1 2-5 1-1 9 1 4 1-1 7-20 62-7 22-8 38-5 30h-3v-10l5-41v-27l-6-81z" fill="#FDFDFC"/>
<path transform="translate(996,1034)" d="m0 0h5l-1 3-25 11-32 16-16 10-15 11-29 20-19 13-3 3-4-5-3-5 1-5 3-3-1-7-2-4-9-2-3-6v-5l13-4 29-7 37-8 22-6 21-8z" fill="#FDFDFC"/>
<path transform="translate(1185,926)" d="m0 0 4 2 4 8-1 5-2 3v6l4 5 8 2 3 7v4l-37 9-56 13-25 9-26 10-8 3h-5v-3l13-5 29-14 16-8 11-7 40-28 19-13 8-6z" fill="#FDFDFC"/>
<path transform="translate(1033,1047)" d="m0 0 4 1 6 12 9 20 13 27 8 11 14 21 14 20 16 24 2 5-7 5-6-1-3-2h-6l-4 2-2 9-4 3-8 1-4-15-7-28-7-31-6-26-16-42-5-13z" fill="#FDFDFC"/>
<path transform="translate(1049,1024)" d="m0 0 13 1 41 5h23l58-4 19-2h10l1 1v9l-9 9v6l6 7-2 11-4 1-15-5-70-22-24-5-47-8z" fill="#FDFDFC"/>
<path transform="translate(839,979)" d="m0 0 8 1 84 27 32 6 28 4 7 3 1 3-29-3-28-3h-23l-73 5h-12v-13l7-4h2l1-6-2-6-4-3v-8z" fill="#FDFDFC"/>
<path transform="translate(1158,890)" d="m0 0 6 4 3 4-2 4v6l5 5 4 1h5l6 8-1 4-22 12-22 11-19 10-21 11-13 9-12 8-15 11-11 7-3 4v-2l-3-1 5-5 13-10 14-12 9-7 10-8 10-11 9-11 14-15 7-8 11-13 11-12z" fill="#FDFDFC"/>
<path transform="translate(919,1016)" d="m0 0h23l49 5 8 2v5h-20l-39 3h-14l-92-6v-3z" fill="#0A357C"/>
<path transform="translate(1154,891)" d="m0 0h3l-1 4-14 15-9 11-14 15-9 11-10 11-7 8-11 9-10 8-11 9-10 8-9 6 1-6 9-10 9-11 10-11 9-11 8-8 11-9 12-11 11-9 14-13 8-7z" fill="#083182"/>
<path transform="translate(1114,858)" d="m0 0 4 1h-2l-3 10-8 16-14 29-12 26-7 13-12 17-11 16-8 11-4 5-3-2h2l1-6 15-33 11-23 12-19 28-44 9-14z" fill="#083281"/>
<path transform="translate(1028,1048)" d="m0 0h5l3 5 17 44 5 16 10 43 6 26 5 20-1 3-5-8-13-37-8-20-10-27-6-29-5-28v-7z" fill="#09347E"/>
<path transform="translate(1184,925)" d="m0 0 2 1-4 5-35 24-20 14-16 11-16 9-30 14-11 5h-5v-4l11-7 11-8 26-18 18-10 20-10 19-10 23-12z" fill="#083281"/>
<path transform="translate(927,860)" d="m0 0 4 2 10 15 23 34 12 17 10 16 17 35 8 19v2l3 1h-5l-6-7-8-11-12-17-9-13-9-16-27-54-9-17z" fill="#083182"/>
<path transform="translate(969,843)" d="m0 0h2l4 8 7 19 15 41 7 18 6 25 5 26 1 18-3-1-6-17-14-35-6-23-13-56-5-19z" fill="#083182"/>
<path transform="translate(1021,1177)" d="m0 0h1l2 16h1l1-9h1v24l-1 5 2 1-4-1-3-24z" fill="#358A05"/>
<path transform="translate(846,1021)" d="m0 0h14v1l-11 2 12 1v1h-13l-14-1v-3z" fill="#358A05"/>
<path transform="translate(1213,1020)" d="m0 0h1v5h-21v-1h8v-2h-8v-1z" fill="#358A05"/>
<path transform="translate(978,1193)" d="m0 0 3 3-3 12h-1v-10z" fill="#358A05"/>
</svg>
